<?xml version="1.0" encoding="UTF-8"?>
<svg width="18px" height="23px" viewBox="0 0 18 23" version="1.1" xmlns="http://www.w3.org/2000/svg" xmlns:xlink="http://www.w3.org/1999/xlink">
    <title>Icons / User</title>
    <g id="Symbols" stroke="none" stroke-width="1" fill="none" fill-rule="evenodd">
        <g id="Global-/-Nav" transform="translate(-1343.000000, -29.000000)" fill="#0A0912" fill-rule="nonzero">
            <g id="Icons-/-User" transform="translate(1343.928932, 29.000000)">
                <path d="M8.07106781,10.3137085 C3.61354014,10.3137085 8.8817842e-14,13.9272486 8.8817842e-14,18.3847763 C8.8817842e-14,23.6233526 16.1421356,23.6233526 16.1421356,18.3847763 C16.1421356,13.9272486 12.5285955,10.3137085 8.07106781,10.3137085 Z M8.07106781,12.3137085 C11.424026,12.3137085 14.1421356,15.0318181 14.1421356,18.3847763 C14.1421356,20.9566859 2,20.9566859 2,18.3847763 C2,15.0318181 4.71810964,12.3137085 8.07106781,12.3137085 Z M8.07106781,0 C5.30964406,0 3.07106781,2.23857625 3.07106781,5 C3.07106781,7.76142375 5.30964406,10 8.07106781,10 C10.8324916,10 13.0710678,7.76142375 13.0710678,5 C13.0710678,2.23857625 10.8324916,0 8.07106781,0 Z M8.07106781,2 C9.72792206,2 11.0710678,3.34314575 11.0710678,5 C11.0710678,6.65685425 9.72792206,8 8.07106781,8 C6.41421356,8 5.07106781,6.65685425 5.07106781,5 C5.07106781,3.34314575 6.41421356,2 8.07106781,2 Z" id="Combined-Shape"></path>
            </g>
        </g>
    </g>
</svg>