<?xml version="1.0" encoding="UTF-8"?>
<svg width="40px" height="40px" viewBox="0 0 40 40" version="1.1" xmlns="http://www.w3.org/2000/svg" xmlns:xlink="http://www.w3.org/1999/xlink">
    <title>Icons / search</title>
    <g id="Crypto-Buddies" stroke="none" stroke-width="1" fill="none" fill-rule="evenodd" opacity="0.32">
        <g id="Crypto-Buddies-/-Landing-page" transform="translate(-80.000000, -328.000000)" fill="#1E252C" fill-rule="nonzero">
            <g id="Icons-/-search" transform="translate(80.000000, 328.000000)">
                <path d="M16.3076923,0 C25.3141821,0 32.6153846,7.30120254 32.6153846,16.3076923 C32.6153846,20.2572326 31.2113546,23.8788442 28.8751883,26.7006334 L39.549395,37.3736819 C40.1502017,37.9744885 40.1502017,38.9485884 39.549395,39.549395 C38.9485884,40.1502017 37.9744885,40.1502017 37.3736819,39.549395 L26.7006334,28.8751883 C23.8788442,31.2113546 20.2572326,32.6153846 16.3076923,32.6153846 C7.30120254,32.6153846 7.10542736e-15,25.3141821 7.10542736e-15,16.3076923 C7.10542736e-15,7.30120254 7.30120254,0 16.3076923,0 Z M16.3076923,3.07692308 C9.00054023,3.07692308 3.07692308,9.00054023 3.07692308,16.3076923 C3.07692308,23.6148444 9.00054023,29.5384615 16.3076923,29.5384615 C23.6148444,29.5384615 29.5384615,23.6148444 29.5384615,16.3076923 C29.5384615,9.00054023 23.6148444,3.07692308 16.3076923,3.07692308 Z" id="Combined-Shape"></path>
            </g>
        </g>
    </g>
</svg>